# xmcd
#
# Track frame offsets:
#  150
#  4694
#  28516
#  69126
#  90581
#  134981
#  164795
#  187818
#  251629
#  274995
#  299445
#  341410
#
# Disc length: 4634 seconds
#
# Revision: 0
# Processed by: cddbd v1.5.1PL0 Copyright (c) Steve Scherf et al.
# Submitted via: AltoMP3_Maker 3.0
#
DISCID=af12180c
DTITLE=Gary Gibson Group - GGG Live!
DYEAR=1900
DGENRE=
TTITLE0=Intro
TTITLE1=Killin' Floor (howlin' wolf)
TTITLE2=Sympathy for the Devil (Mick Jagger)
TTITLE3=Life is a Bitch (Luther Allison)
TTITLE4=Clean Head Blues (Eddie Vinson)
TTITLE5=Born Under a Bad Sign (Albert King)
TTITLE6=Gotta Give a Little
TTITLE7=Blow Top (Dr. Strut)
TTITLE8=I Got a High
TTITLE9=What Do You Want Me To Do (Jimmy Reed)
TTITLE10=Not Fade Away (Buddy Holly)
TTITLE11=Closing Comments
EXTD=
EXTT0=
EXTT1=
EXTT2=
EXTT3=
EXTT4=
EXTT5=
EXTT6=
EXTT7=
EXTT8=
EXTT9=
EXTT10=
EXTT11=
PLAYORDER=
